<svg width="234" height="206" viewBox="0 0 234 206" fill="none" xmlns="http://www.w3.org/2000/svg">
<g filter="url(#filter0_d_507_350)">
<path d="M130.234 100.634H108.24C108.24 95.9919 108.547 91.9038 109.16 88.3696C109.824 84.7827 110.948 81.565 112.532 78.7165C114.115 75.8681 116.261 73.2306 118.969 70.8041C121.37 68.7469 123.439 66.7688 125.176 64.8699C126.913 62.9709 128.241 61.0456 129.161 59.0938C130.081 57.1421 130.54 55.0585 130.54 52.8431C130.54 50.1001 130.157 47.8583 129.391 46.1176C128.676 44.3768 127.577 43.0845 126.096 42.2405C124.665 41.3438 122.852 40.8954 120.655 40.8954C118.867 40.8954 117.181 41.3438 115.597 42.2405C114.064 43.1372 112.813 44.5351 111.842 46.4341C110.871 48.2803 110.335 50.7331 110.233 53.7926H84.254C84.4073 45.9329 86.0932 39.5503 89.3118 34.6446C92.5815 29.6862 96.924 26.0729 102.339 23.8047C107.806 21.4837 113.911 20.3232 120.655 20.3232C128.114 20.3232 134.525 21.5101 139.89 23.8838C145.254 26.2575 149.367 29.7917 152.228 34.4864C155.089 39.1283 156.519 44.8516 156.519 51.6562C156.519 56.1926 155.676 60.1488 153.99 63.5248C152.355 66.848 150.133 69.9602 147.323 72.8614C144.564 75.7098 141.473 78.7693 138.05 82.0397C135.087 84.7299 133.069 87.4729 131.996 90.2686C130.924 93.0115 130.336 96.4666 130.234 100.634ZM105.098 124.687C105.098 120.889 106.427 117.724 109.083 115.193C111.74 112.608 115.188 111.315 119.429 111.315C123.669 111.315 127.117 112.608 129.774 115.193C132.431 117.724 133.759 120.889 133.759 124.687C133.759 128.485 132.431 131.677 129.774 134.261C127.117 136.793 123.669 138.059 119.429 138.059C115.188 138.059 111.74 136.793 109.083 134.261C106.427 131.677 105.098 128.485 105.098 124.687Z" fill="#FF01B4"/>
</g>
<g filter="url(#filter1_d_507_350)">
<path d="M177.192 124.066L164.839 117.276C166.183 114.669 167.539 112.467 168.907 110.672C170.318 108.862 171.881 107.402 173.596 106.291C175.31 105.18 177.279 104.361 179.502 103.834C181.447 103.419 183.182 102.947 184.707 102.417C186.233 101.886 187.536 101.215 188.618 100.403C189.7 99.5903 190.561 98.5619 191.203 97.3175C191.997 95.7769 192.431 94.3994 192.505 93.1852C192.607 91.9867 192.364 90.9217 191.776 89.9903C191.233 89.0451 190.344 88.2334 189.11 87.5552C188.106 87.0032 187.029 86.7346 185.88 86.7494C184.759 86.78 183.651 87.1787 182.556 87.9457C181.476 88.683 180.465 89.8951 179.522 91.5819L164.93 83.5625C167.292 79.1953 170.087 76.1308 173.316 74.3689C176.588 72.5933 180.073 71.9043 183.772 72.302C187.514 72.6859 191.279 73.9187 195.067 76.0004C199.256 78.303 202.514 80.9488 204.84 83.938C207.165 86.9272 208.452 90.1818 208.699 93.7018C208.962 97.1922 208.108 100.848 206.138 104.67C204.824 107.218 203.205 109.18 201.281 110.556C199.4 111.918 197.251 112.98 194.832 113.742C192.458 114.49 189.836 115.254 186.967 116.035C184.523 116.631 182.596 117.549 181.183 118.788C179.787 119.997 178.456 121.757 177.192 124.066ZM156.109 129.817C157.209 127.683 158.871 126.316 161.096 125.714C163.337 125.082 165.648 125.421 168.03 126.73C170.412 128.039 171.974 129.829 172.718 132.101C173.477 134.343 173.307 136.531 172.207 138.664C171.107 140.797 169.437 142.18 167.196 142.811C164.971 143.413 162.667 143.06 160.286 141.751C157.904 140.442 156.334 138.666 155.575 136.424C154.831 134.152 155.009 131.95 156.109 129.817Z" fill="#5A91F7"/>
</g>
<g filter="url(#filter2_d_507_350)">
<path d="M57.0188 124.066L69.3721 117.276C68.0279 114.669 66.672 112.467 65.3043 110.672C63.8926 108.862 62.3295 107.402 60.6152 106.291C58.9008 105.18 56.9319 104.361 54.7084 103.834C52.7641 103.419 51.0291 102.947 49.5036 102.417C47.9781 101.886 46.6745 101.215 45.5928 100.403C44.5112 99.5903 43.6496 98.5619 43.0081 97.3175C42.2138 95.7769 41.7798 94.3994 41.7062 93.1852C41.6039 91.9867 41.8466 90.9217 42.4344 89.9903C42.9782 89.0451 43.867 88.2334 45.1009 87.5552C46.1052 87.0032 47.182 86.7346 48.3312 86.7494C49.4517 86.78 50.5595 87.1787 51.6546 87.9457C52.7344 88.683 53.746 89.8951 54.6893 91.5819L69.2807 83.5625C66.9187 79.1953 64.1236 76.1308 60.8953 74.3689C57.623 72.5933 54.1376 71.9043 50.4392 72.302C46.6967 72.6859 42.9316 73.9187 39.1439 76.0004C34.9544 78.303 31.6969 80.9488 29.3712 83.938C27.0456 86.9272 25.759 90.1818 25.5115 93.7018C25.2487 97.1922 26.1026 100.848 28.073 104.67C29.3866 107.218 31.0056 109.18 32.9301 110.556C34.8106 111.918 36.9601 112.98 39.3784 113.742C41.7527 114.49 44.3747 115.254 47.2443 116.035C49.6876 116.631 51.6153 117.549 53.0274 118.788C54.4243 119.997 55.7548 121.757 57.0188 124.066ZM78.1019 129.817C77.0022 127.683 75.3396 126.316 73.1143 125.714C70.8737 125.082 68.5626 125.421 66.1809 126.73C63.7992 128.039 62.2365 129.829 61.4928 132.101C60.7339 134.343 60.9043 136.531 62.004 138.664C63.1038 140.797 64.7739 142.18 67.0145 142.811C69.2398 143.413 71.5433 143.06 73.925 141.751C76.3067 140.442 77.8771 138.666 78.636 136.424C79.3797 134.152 79.2017 131.95 78.1019 129.817Z" fill="#04A198"/>
</g>
<path d="M124.05 101.339L124.935 101.349L124.967 100.465C125.114 96.3644 125.73 93.0296 126.782 90.4292L126.784 90.4238C127.822 87.81 129.769 85.2031 132.691 82.6131L132.7 82.6054L132.708 82.5975C136.175 79.3625 139.309 76.3327 142.11 73.5083C145.013 70.5814 147.328 67.4216 149.047 64.0281C150.847 60.5254 151.758 56.4366 151.811 51.7887C151.89 44.8589 150.5 38.9444 147.588 34.0923C144.68 29.194 140.462 25.4895 134.969 22.9794C129.491 20.4757 122.962 19.1947 115.41 19.1026C108.562 19.0192 102.322 20.1219 96.7031 22.4276C91.0942 24.6981 86.5691 28.3747 83.1438 33.4396L83.1426 33.4414C79.7456 38.4896 77.959 45.033 77.7123 53.0045L77.6837 53.9291L78.6087 53.9404L104.586 54.257L105.463 54.2677L105.502 53.3911C105.636 50.411 106.184 48.1144 107.087 46.4434L107.087 46.4434L107.092 46.4342C108.019 44.6716 109.174 43.4323 110.536 42.6556C111.993 41.8545 113.528 41.4679 115.154 41.4877C117.231 41.513 118.86 41.9567 120.099 42.7546L120.115 42.765L120.132 42.7746C121.411 43.5236 122.369 44.6615 122.998 46.2434L123.002 46.2538L123.006 46.2642C123.686 47.859 124.036 49.9686 124.006 52.6368C123.982 54.7221 123.528 56.6679 122.646 58.4847C121.751 60.3292 120.457 62.1643 118.749 63.988C117.021 65.8336 114.957 67.7612 112.555 69.7705L112.547 69.777L112.539 69.7837C109.737 72.2357 107.494 74.9235 105.822 77.8495C104.152 80.7733 102.96 84.0717 102.238 87.7353L102.238 87.7353L102.236 87.7454C101.571 91.3353 101.214 95.4731 101.161 100.152L101.151 101.06L102.058 101.071L124.05 101.339ZM102.123 114.07C99.2512 116.745 97.7904 120.132 97.7443 124.166C97.6981 128.202 99.0814 131.647 101.887 134.441L101.893 134.448C104.714 137.2 108.383 138.576 112.818 138.63C117.252 138.684 120.952 137.398 123.835 134.715L123.841 134.709C126.71 131.984 128.171 128.573 128.217 124.537C128.264 120.503 126.881 117.081 124.071 114.338C121.252 111.532 117.582 110.128 113.144 110.074C108.706 110.019 105.005 111.334 102.123 114.07Z" stroke="white" stroke-width="1.81447"/>
<path d="M173.512 122.556L174.002 122.833L174.278 122.343C175.548 120.086 176.859 118.405 178.201 117.27L178.204 117.267C179.543 116.121 181.39 115.258 183.782 114.705L183.789 114.703L183.796 114.701C186.68 113.954 189.318 113.22 191.709 112.498C194.187 111.75 196.403 110.69 198.352 109.314C200.378 107.901 202.074 105.885 203.451 103.289C205.503 99.4193 206.436 95.666 206.204 92.0398C205.989 88.39 204.693 85.0081 202.336 81.9044C199.985 78.8083 196.69 76.0744 192.476 73.6923C188.656 71.5323 184.833 70.2258 181.011 69.7865C177.205 69.3305 173.599 69.9982 170.207 71.7861L170.206 71.7867C166.835 73.5742 163.935 76.6995 161.488 81.1024L161.202 81.6167L161.714 81.9065L176.213 90.1032L176.699 90.3778L176.976 89.8944C177.914 88.2629 178.886 87.1436 179.875 86.4849L179.876 86.4849L179.881 86.4812C180.911 85.7781 181.918 85.4381 182.909 85.4223C183.961 85.4222 184.937 85.6793 185.847 86.1936C187.007 86.8498 187.795 87.6033 188.261 88.4356L188.267 88.4463L188.274 88.4567C188.776 89.2735 188.984 90.2082 188.879 91.2886L188.879 91.2959L188.878 91.3032C188.799 92.4071 188.385 93.6985 187.596 95.1867C186.979 96.3489 186.162 97.3003 185.142 98.0478C184.105 98.8069 182.848 99.4382 181.361 99.9352C179.855 100.438 178.138 100.884 176.207 101.271L176.207 101.271L176.194 101.274C173.91 101.786 171.872 102.603 170.085 103.731C168.3 104.858 166.674 106.343 165.207 108.179L165.207 108.179L165.203 108.184C163.789 109.996 162.391 112.21 161.005 114.823L160.735 115.333L161.238 115.617L173.512 122.556ZM163.72 141.235L163.726 141.233C166.126 140.588 167.937 139.123 169.134 136.867C170.33 134.612 170.543 132.26 169.759 129.852C168.989 127.407 167.335 125.487 164.861 124.088C162.387 122.69 159.93 122.285 157.52 122.933C155.132 123.548 153.329 125 152.133 127.256C150.936 129.512 150.716 131.876 151.483 134.312L151.485 134.318C152.271 136.733 153.933 138.637 156.405 140.034C158.877 141.432 161.325 141.852 163.72 141.235Z" stroke="white" stroke-width="1.15453"/>
<path d="M60.6986 122.556L60.2084 122.833L59.9325 122.343C58.6628 120.086 57.352 118.405 56.0094 117.27L56.0065 117.267C54.6681 116.121 52.8204 115.258 50.4289 114.705L50.4219 114.703L50.4149 114.701C47.5308 113.954 44.893 113.22 42.5021 112.498C40.0241 111.75 37.8081 110.69 35.8592 109.314C33.8329 107.901 32.1364 105.885 30.76 103.289C28.7078 99.4193 27.7752 95.666 28.0064 92.0398C28.2215 88.39 29.5181 85.0081 31.875 81.9044C34.2261 78.8083 37.5208 76.0744 41.7345 73.6923C45.5552 71.5323 49.3779 70.2258 53.2002 69.7865C57.0062 69.3305 60.612 69.9982 64.0034 71.7861L64.0046 71.7867C67.3758 73.5742 70.2755 76.6995 72.7232 81.1024L73.0092 81.6167L72.4966 81.9065L57.9978 90.1032L57.5121 90.3778L57.2343 89.8944C56.2969 88.2629 55.3252 87.1436 54.3353 86.4849L54.3353 86.4849L54.3298 86.4812C53.3 85.7781 52.2929 85.4381 51.3018 85.4223C50.2499 85.4222 49.2739 85.6793 48.3641 86.1936C47.2033 86.8498 46.4154 87.6033 45.9493 88.4356L45.9434 88.4463L45.937 88.4567C45.4347 89.2735 45.2267 90.2082 45.3315 91.2886L45.3322 91.2959L45.3327 91.3032C45.4123 92.4071 45.8259 93.6985 46.6151 95.1867C47.2314 96.3489 48.0487 97.3003 49.0691 98.0478C50.1053 98.8069 51.3628 99.4382 52.8502 99.9352C54.3555 100.438 56.0728 100.884 58.0041 101.271L58.0041 101.271L58.0165 101.274C60.3003 101.786 62.3389 102.603 64.1257 103.731C65.9113 104.858 67.5367 106.343 69.0038 108.179L69.0038 108.179L69.0079 108.184C70.4215 109.996 71.8201 112.21 73.2054 114.823L73.4758 115.333L72.9733 115.617L60.6986 122.556ZM70.4905 141.235L70.4849 141.233C68.0845 140.588 66.2737 139.123 65.0773 136.867C63.8813 134.612 63.6679 132.26 64.4515 129.852C65.2218 127.407 66.8756 125.487 69.3495 124.088C71.8235 122.69 74.2808 122.285 76.6911 122.933C79.0785 123.548 80.882 125 82.078 127.256C83.2744 129.512 83.4945 131.876 82.7281 134.312L82.7262 134.318C81.9394 136.733 80.2778 138.637 77.8057 140.034C75.3337 141.432 72.8856 141.852 70.4905 141.235Z" stroke="white" stroke-width="1.15453"/>
<path d="M41.0387 25.7524C41.0387 29.7729 37.886 33.0047 34.0303 33.0047C30.1747 33.0047 27.022 29.7729 27.022 25.7524C27.022 21.7318 30.1747 18.5 34.0303 18.5C37.886 18.5 41.0387 21.7318 41.0387 25.7524Z" stroke="white"/>
<path d="M179.192 152.891C179.192 153.829 178.46 154.562 177.59 154.562C176.72 154.562 175.988 153.829 175.988 152.891C175.988 151.953 176.72 151.22 177.59 151.22C178.46 151.22 179.192 151.953 179.192 152.891Z" stroke="white"/>
<path d="M91.5474 172.442C91.5474 173.362 91.2791 174.09 90.7424 174.627C90.2057 175.163 89.4774 175.432 88.5574 175.432C87.6834 175.432 86.9857 175.225 86.4644 174.811C85.9431 174.397 85.6824 173.837 85.6824 173.132C85.6824 172.304 85.9431 171.56 86.4644 170.901C86.1731 170.947 85.8741 170.985 85.5674 171.016C85.2607 171.046 84.9387 171.062 84.6014 171.062C82.7614 171.062 81.2817 170.571 80.1624 169.59C79.0584 168.593 78.5064 167.282 78.5064 165.657C78.5064 164.645 78.8361 163.74 79.4954 162.943C80.1547 162.145 81.0134 161.609 82.0714 161.333C81.7341 161.041 81.5654 160.681 81.5654 160.252C81.5654 159.669 81.8184 159.178 82.3244 158.78C82.8457 158.381 83.4821 158.182 84.2334 158.182C85.3374 158.182 86.2881 158.473 87.0854 159.056C87.8827 159.638 88.2814 160.344 88.2814 161.172V162.322H85.2914C84.0801 162.322 83.1064 162.636 82.3704 163.265C81.6344 163.893 81.2664 164.729 81.2664 165.772C81.2664 166.968 81.6727 167.918 82.4854 168.624C83.2981 169.329 84.3867 169.682 85.7514 169.682C86.6867 169.682 87.6834 169.375 88.7414 168.762V169.912C88.5574 170.05 88.4577 170.126 88.4424 170.142C88.3351 170.218 88.2047 170.287 88.0514 170.349C87.5454 170.977 87.2924 171.713 87.2924 172.557C87.2924 173.017 87.4457 173.4 87.7524 173.707C88.0591 174.013 88.4424 174.167 88.9024 174.167C89.3931 174.167 89.7841 174.013 90.0754 173.707C90.3667 173.4 90.5124 172.978 90.5124 172.442H91.5474ZM86.6714 161.172C86.6714 160.758 86.5181 160.405 86.2114 160.114C85.9047 159.822 85.5214 159.677 85.0614 159.677C85.1381 159.953 85.1764 160.183 85.1764 160.367C85.1917 160.551 85.1151 160.819 84.9464 161.172H86.6714ZM95.675 173.247C95.675 174.059 95.4603 174.703 95.031 175.179C94.6017 175.654 94.0113 175.892 93.26 175.892C92.386 175.892 91.6883 175.577 91.167 174.949C90.6457 174.32 90.385 173.484 90.385 172.442C90.385 171.077 90.7453 169.712 91.466 168.348C92.1867 166.968 93.2063 165.726 94.525 164.622H90.615V163.242H95.675V164.852C94.7703 165.756 94.065 166.807 93.559 168.003C93.053 169.183 92.8 170.395 92.8 171.637C92.8 172.357 92.9073 172.955 93.122 173.431C93.3367 173.921 93.6127 174.167 93.95 174.167C94.18 174.167 94.3717 174.082 94.525 173.914C94.6783 173.745 94.755 173.523 94.755 173.247H95.675ZM115.644 164.852C115.644 166.523 115.161 167.957 114.195 169.153C113.229 170.349 112.064 170.947 110.699 170.947C109.856 170.947 109.166 170.793 108.629 170.487V169.567C107.449 170.563 105.915 171.062 104.029 171.062C101.898 171.062 100.196 170.571 98.9232 169.59C97.6505 168.608 97.0142 167.297 97.0142 165.657C97.0142 165.135 97.0909 164.675 97.2442 164.277L98.2792 164.507C98.3099 164.752 98.4095 164.951 98.5782 165.105C98.7469 165.243 98.9539 165.312 99.1992 165.312C99.8279 165.312 100.825 164.752 102.189 163.633C103.569 162.513 104.259 161.693 104.259 161.172C104.259 160.819 104.152 160.52 103.937 160.275C103.723 160.029 103.447 159.907 103.109 159.907L102.649 160.022C102.956 160.282 103.109 160.666 103.109 161.172C103.109 161.739 102.918 162.23 102.534 162.644C102.166 163.042 101.706 163.242 101.154 163.242C100.572 163.242 100.081 163.042 99.6822 162.644C99.2835 162.245 99.0842 161.754 99.0842 161.172C99.0842 160.344 99.3985 159.677 100.027 159.171C100.656 158.665 101.492 158.412 102.534 158.412C103.224 158.412 103.838 158.588 104.374 158.941C104.911 159.293 105.294 159.769 105.524 160.367C106.92 159.217 108.376 158.642 109.894 158.642C111.627 158.642 113.015 159.209 114.057 160.344C115.115 161.463 115.644 162.966 115.644 164.852ZM113.804 165.542C113.804 164.208 113.329 163.073 112.378 162.138C111.443 161.187 110.308 160.712 108.974 160.712C107.748 160.712 106.828 161.018 106.214 161.632C107.41 161.632 108.438 162.038 109.296 162.851C110.155 163.663 110.584 164.637 110.584 165.772C110.584 167.075 110.086 168.225 109.089 169.222C109.181 169.237 109.503 169.291 110.055 169.383C110.331 169.429 110.508 169.452 110.584 169.452C111.474 169.452 112.233 169.076 112.861 168.325C113.49 167.573 113.804 166.646 113.804 165.542ZM107.824 165.197C107.824 164.691 107.648 164.261 107.295 163.909C106.958 163.541 106.559 163.357 106.099 163.357C105.731 163.357 105.271 163.502 104.719 163.794C104.183 164.085 103.569 164.514 102.879 165.082C101.775 166.002 100.664 166.462 99.5442 166.462C99.0842 166.462 98.7009 166.308 98.3942 166.002C98.3942 166.814 98.7852 167.458 99.5672 167.934C100.365 168.409 101.43 168.647 102.764 168.647C104.16 168.647 105.348 168.309 106.329 167.635C107.326 166.96 107.824 166.147 107.824 165.197ZM115.118 175.662H103.848C103.281 175.662 102.798 175.455 102.399 175.041C101.985 174.642 101.778 174.144 101.778 173.546C101.778 172.963 101.97 172.465 102.353 172.051C102.736 171.637 103.196 171.43 103.733 171.43C104.469 171.43 105.052 171.675 105.481 172.166L104.791 173.04C104.668 172.948 104.546 172.863 104.423 172.787C104.285 172.725 104.17 172.695 104.078 172.695C103.71 172.695 103.526 172.863 103.526 173.201C103.526 173.431 103.61 173.615 103.779 173.753C103.948 173.891 104.155 173.96 104.4 173.96H113.577V167.267L115.118 165.427V175.662ZM131.264 163.242C131.264 165.726 130.62 167.65 129.332 169.015C128.044 170.379 126.235 171.062 123.904 171.062C121.711 171.062 120.009 170.464 118.798 169.268C117.602 168.056 117.004 166.354 117.004 164.162C117.004 162.889 117.349 161.77 118.039 160.804C118.744 159.822 119.549 159.332 120.454 159.332C120.991 159.332 121.458 159.462 121.857 159.723C122.271 159.983 122.532 160.313 122.639 160.712C122.792 160.344 123.03 160.06 123.352 159.861C123.674 159.661 124.05 159.562 124.479 159.562C125.537 159.562 126.373 159.815 126.986 160.321C127.615 160.811 127.929 161.478 127.929 162.322C127.929 163.441 127.569 164.338 126.848 165.013C126.143 165.672 125.2 166.002 124.019 166.002C123.038 166.002 122.256 165.741 121.673 165.22C121.09 164.698 120.799 164.001 120.799 163.127C120.799 162.927 120.845 162.697 120.937 162.437C121.152 161.823 121.259 161.44 121.259 161.287C121.259 161.118 121.182 160.98 121.029 160.873C120.876 160.765 120.684 160.712 120.454 160.712C119.856 160.712 119.381 160.98 119.028 161.517C118.675 162.053 118.499 162.782 118.499 163.702C118.499 166.615 120.301 168.072 123.904 168.072C125.606 168.072 127.024 167.543 128.159 166.485C129.309 165.411 129.884 164.024 129.884 162.322C129.884 160.742 129.278 159.37 128.067 158.205C126.856 157.039 125.391 156.457 123.674 156.457C122.815 156.457 121.972 156.579 121.144 156.825C120.331 157.055 119.603 157.392 118.959 157.837V156.457C119.526 156.058 120.224 155.751 121.052 155.537C121.895 155.307 122.769 155.192 123.674 155.192C125.928 155.192 127.768 155.974 129.194 157.538C130.574 159.056 131.264 160.957 131.264 163.242ZM125.169 161.517C125.169 161.287 125.108 161.095 124.985 160.942C124.862 160.788 124.694 160.712 124.479 160.712C124.249 160.712 124.057 160.788 123.904 160.942C123.751 161.095 123.674 161.287 123.674 161.517C123.674 161.747 123.751 161.938 123.904 162.092C124.057 162.245 124.249 162.322 124.479 162.322C124.663 162.322 124.824 162.245 124.962 162.092C125.1 161.938 125.169 161.747 125.169 161.517ZM126.779 162.207C126.779 161.9 126.718 161.655 126.595 161.471C126.472 161.271 126.304 161.172 126.089 161.172L126.204 161.517C126.204 162.007 126.035 162.421 125.698 162.759C125.361 163.096 124.954 163.265 124.479 163.265C123.942 163.265 123.482 163.096 123.099 162.759C122.716 162.421 122.524 162.007 122.524 161.517C122.233 161.931 122.087 162.314 122.087 162.667C122.087 163.081 122.271 163.418 122.639 163.679C123.022 163.924 123.521 164.047 124.134 164.047C124.947 164.047 125.591 163.878 126.066 163.541C126.541 163.203 126.779 162.759 126.779 162.207ZM147.24 166.347C147.24 167.65 146.833 168.762 146.021 169.682C145.208 170.602 144.234 171.062 143.1 171.062C142.364 171.062 141.712 170.893 141.145 170.556C140.577 170.218 140.194 169.774 139.995 169.222C139.749 169.774 139.343 170.218 138.776 170.556C138.208 170.893 137.58 171.062 136.89 171.062C135.632 171.062 134.628 170.51 133.877 169.406C133.125 168.302 132.75 166.822 132.75 164.967C132.75 163.081 133.217 161.578 134.153 160.459C135.088 159.324 136.345 158.757 137.925 158.757C138.814 158.757 139.581 158.987 140.225 159.447L139.535 160.482C139.09 160.175 138.553 160.022 137.925 160.022C136.775 160.022 135.855 160.436 135.165 161.264C134.475 162.092 134.13 163.211 134.13 164.622C134.13 165.572 134.398 166.385 134.935 167.06C135.471 167.734 136.123 168.072 136.89 168.072C137.564 168.072 138.132 167.918 138.592 167.612C139.067 167.29 139.305 166.906 139.305 166.462V166.232H140.8V166.462C140.8 166.906 141.007 167.29 141.421 167.612C141.85 167.918 142.371 168.072 142.985 168.072C143.69 168.072 144.288 167.819 144.779 167.313C145.269 166.807 145.515 166.178 145.515 165.427C145.515 164.553 145.239 163.817 144.687 163.219C144.135 162.621 143.452 162.322 142.64 162.322H140.225V161.172C140.225 160.497 140.524 159.93 141.122 159.47C141.735 158.994 142.471 158.757 143.33 158.757C144.127 158.757 144.802 158.987 145.354 159.447C145.921 159.891 146.205 160.428 146.205 161.057C146.205 161.593 146.013 162.015 145.63 162.322C146.703 163.226 147.24 164.568 147.24 166.347ZM144.71 161.057C144.71 160.781 144.587 160.535 144.342 160.321C144.096 160.106 143.797 159.999 143.445 159.999C143.015 159.999 142.655 160.106 142.364 160.321C142.072 160.535 141.896 160.819 141.835 161.172H142.64C143.284 161.172 143.935 161.325 144.595 161.632C144.671 161.524 144.71 161.333 144.71 161.057ZM146.079 156.457C146.079 157.039 145.849 157.53 145.389 157.929C144.929 158.327 144.354 158.527 143.664 158.527V157.607C143.97 157.607 144.223 157.545 144.423 157.423C144.607 157.285 144.699 157.116 144.699 156.917C144.699 156.533 144.346 156.227 143.641 155.997C142.935 155.767 141.985 155.652 140.789 155.652C139.593 155.652 138.642 155.767 137.937 155.997C137.231 156.227 136.879 156.533 136.879 156.917C136.879 157.116 136.948 157.285 137.086 157.423C137.208 157.545 137.369 157.607 137.569 157.607V158.527C136.986 158.527 136.495 158.327 136.097 157.929C135.698 157.53 135.499 157.039 135.499 156.457C135.499 155.552 135.997 154.808 136.994 154.226C137.99 153.643 139.255 153.352 140.789 153.352C142.399 153.352 143.687 153.635 144.653 154.203C145.603 154.755 146.079 155.506 146.079 156.457ZM80.6384 190.012C80.6384 192.45 79.9944 194.405 78.7064 195.877C77.4337 197.333 75.7394 198.062 73.6234 198.062C71.7067 198.062 70.1734 197.579 69.0234 196.613C67.8734 195.647 67.2984 194.366 67.2984 192.772C67.2984 191.944 67.5054 191.185 67.9194 190.495C68.3334 189.805 68.8931 189.299 69.5984 188.977C69.2764 188.977 69.0004 188.854 68.7704 188.609C68.5557 188.348 68.4484 188.049 68.4484 187.712C68.4484 187.16 68.6784 186.684 69.1384 186.286C69.5984 185.887 70.1504 185.688 70.7944 185.688C71.9597 185.688 72.8951 186.017 73.6004 186.677C74.3057 187.336 74.6584 188.218 74.6584 189.322H71.6684C70.9017 189.322 70.2501 189.567 69.7134 190.058C69.1767 190.548 68.9084 191.146 68.9084 191.852C68.9084 193.998 70.4034 195.072 73.3934 195.072C75.2027 195.072 76.6134 194.589 77.6254 193.623C78.6374 192.657 79.1434 191.3 79.1434 189.552C79.1434 187.727 78.5991 186.255 77.5104 185.136C76.4217 184.016 74.9727 183.457 73.1634 183.457C71.3234 183.457 69.8667 183.84 68.7934 184.607L68.2184 183.687C68.8931 183.211 69.6521 182.843 70.4954 182.583C71.3541 182.322 72.2434 182.192 73.1634 182.192C75.4327 182.192 77.2421 182.905 78.5914 184.331C79.9561 185.741 80.6384 187.635 80.6384 190.012ZM73.2784 188.287C73.2784 187.934 73.1251 187.62 72.8184 187.344C72.5117 187.052 72.1284 186.868 71.6684 186.792C71.8217 186.945 71.8984 187.175 71.8984 187.482C71.8984 187.865 71.8217 188.133 71.6684 188.287H73.2784ZM86.2642 192.542C86.2642 194.075 85.9652 195.378 85.3672 196.452C84.7692 197.525 84.0332 198.062 83.1592 198.062C82.6379 198.062 82.1779 197.916 81.7792 197.625C81.3652 197.333 81.0969 196.942 80.9742 196.452L81.7792 195.992C81.9786 196.375 82.2469 196.567 82.5842 196.567C82.9982 196.567 83.3509 196.275 83.6422 195.693C83.9336 195.11 84.0792 194.405 84.0792 193.577V190.242C84.0792 189.368 83.9336 188.616 83.6422 187.988C83.3509 187.344 82.9982 187.022 82.5842 187.022C82.3236 186.991 82.0552 187.144 81.7792 187.482L81.3192 186.562C81.8712 185.872 82.4846 185.527 83.1592 185.527C84.0179 185.527 84.7462 186.079 85.3442 187.183C85.9576 188.271 86.2642 189.598 86.2642 191.162V192.542ZM101.991 193.232C101.991 194.704 101.615 195.877 100.864 196.751C100.113 197.625 99.1082 198.062 97.8508 198.062C97.1608 198.062 96.5475 197.87 96.0108 197.487C95.4895 197.103 95.1445 196.605 94.9758 195.992C94.8072 196.605 94.4468 197.103 93.8948 197.487C93.3428 197.87 92.7065 198.062 91.9858 198.062C90.7898 198.062 89.8392 197.625 89.1338 196.751C88.4285 195.877 88.0758 194.704 88.0758 193.232C88.0758 192.327 88.2675 191.53 88.6508 190.84C89.0342 190.15 89.5708 189.644 90.2608 189.322H88.5358V188.172H89.5708C89.4175 187.926 89.3408 187.62 89.3408 187.252C89.3408 186.776 89.5862 186.37 90.0768 186.033C90.5675 185.695 91.1655 185.527 91.8708 185.527C92.6682 185.527 93.3428 185.787 93.8948 186.309C94.4622 186.815 94.7458 187.436 94.7458 188.172V189.322H92.5608C91.7175 189.322 91.0045 189.605 90.4218 190.173C89.8545 190.725 89.5708 191.399 89.5708 192.197C89.5708 193.071 89.8085 193.768 90.2838 194.29C90.7592 194.811 91.4032 195.072 92.2158 195.072C92.8138 195.072 93.3275 194.903 93.7568 194.566C94.1862 194.228 94.4008 193.822 94.4008 193.347V193.002H95.5508V193.347C95.5508 193.822 95.7502 194.228 96.1488 194.566C96.5475 194.903 97.0382 195.072 97.6208 195.072C98.5408 195.072 99.2692 194.826 99.8058 194.336C100.343 193.845 100.611 193.17 100.611 192.312C100.611 191.468 100.327 190.763 99.7598 190.196C99.2078 189.613 98.5332 189.322 97.7358 189.322H95.4358V188.172C95.4358 187.436 95.7348 186.815 96.3328 186.309C96.9462 185.787 97.6822 185.527 98.5408 185.527C99.2922 185.527 99.9362 185.741 100.473 186.171C101.025 186.6 101.301 187.114 101.301 187.712C101.301 188.325 101.071 188.862 100.611 189.322C101.531 190.104 101.991 191.407 101.991 193.232ZM99.8058 187.712C99.8058 187.466 99.6832 187.252 99.4378 187.068C99.1925 186.884 98.8935 186.792 98.5408 186.792C98.0502 186.792 97.6362 186.922 97.2988 187.183C96.9768 187.443 96.8158 187.773 96.8158 188.172C98.0425 188.172 98.9242 188.325 99.4608 188.632C99.6908 188.356 99.8058 188.049 99.8058 187.712ZM93.5958 188.172C93.5958 187.85 93.5345 187.581 93.4118 187.367C93.2892 187.137 93.1205 187.022 92.9058 187.022L92.5608 187.137L92.6068 187.551C92.6068 187.704 92.4765 187.911 92.2158 188.172H93.5958ZM121.843 191.852C121.843 193.523 121.36 194.957 120.394 196.153C119.428 197.349 118.263 197.947 116.898 197.947C116.055 197.947 115.365 197.793 114.828 197.487V196.567C113.648 197.563 112.114 198.062 110.228 198.062C108.097 198.062 106.395 197.571 105.122 196.59C103.85 195.608 103.213 194.297 103.213 192.657C103.213 192.135 103.29 191.675 103.443 191.277L104.478 191.507C104.509 191.752 104.609 191.951 104.777 192.105C104.946 192.243 105.153 192.312 105.398 192.312C106.027 192.312 107.024 191.752 108.388 190.633C109.768 189.513 110.458 188.693 110.458 188.172C110.458 187.819 110.351 187.52 110.136 187.275C109.922 187.029 109.646 186.907 109.308 186.907L108.848 187.022C109.155 187.282 109.308 187.666 109.308 188.172C109.308 188.739 109.117 189.23 108.733 189.644C108.365 190.042 107.905 190.242 107.353 190.242C106.771 190.242 106.28 190.042 105.881 189.644C105.483 189.245 105.283 188.754 105.283 188.172C105.283 187.344 105.598 186.677 106.226 186.171C106.855 185.665 107.691 185.412 108.733 185.412C109.423 185.412 110.037 185.588 110.573 185.941C111.11 186.293 111.493 186.769 111.723 187.367C113.119 186.217 114.575 185.642 116.093 185.642C117.826 185.642 119.214 186.209 120.256 187.344C121.314 188.463 121.843 189.966 121.843 191.852ZM120.003 192.542C120.003 191.208 119.528 190.073 118.577 189.138C117.642 188.187 116.507 187.712 115.173 187.712C113.947 187.712 113.027 188.018 112.413 188.632C113.609 188.632 114.637 189.038 115.495 189.851C116.354 190.663 116.783 191.637 116.783 192.772C116.783 194.075 116.285 195.225 115.288 196.222C115.38 196.237 115.702 196.291 116.254 196.383C116.53 196.429 116.707 196.452 116.783 196.452C117.673 196.452 118.432 196.076 119.06 195.325C119.689 194.573 120.003 193.646 120.003 192.542ZM114.023 192.197C114.023 191.691 113.847 191.261 113.494 190.909C113.157 190.541 112.758 190.357 112.298 190.357C111.93 190.357 111.47 190.502 110.918 190.794C110.382 191.085 109.768 191.514 109.078 192.082C107.974 193.002 106.863 193.462 105.743 193.462C105.283 193.462 104.9 193.308 104.593 193.002C104.593 193.814 104.984 194.458 105.766 194.934C106.564 195.409 107.629 195.647 108.963 195.647C110.359 195.647 111.547 195.309 112.528 194.635C113.525 193.96 114.023 193.147 114.023 192.197ZM127.435 192.542C127.435 194.075 127.136 195.378 126.538 196.452C125.94 197.525 125.204 198.062 124.33 198.062C123.809 198.062 123.349 197.916 122.95 197.625C122.536 197.333 122.268 196.942 122.145 196.452L122.95 195.992C123.149 196.375 123.418 196.567 123.755 196.567C124.169 196.567 124.522 196.275 124.813 195.693C125.104 195.11 125.25 194.405 125.25 193.577V190.242C125.25 189.368 125.104 188.616 124.813 187.988C124.522 187.344 124.169 187.022 123.755 187.022C123.494 186.991 123.226 187.144 122.95 187.482L122.49 186.562C123.042 185.872 123.655 185.527 124.33 185.527C125.189 185.527 125.917 186.079 126.515 187.183C127.128 188.271 127.435 189.598 127.435 191.162V192.542ZM142.541 190.012C142.541 192.45 141.897 194.405 140.609 195.877C139.336 197.333 137.642 198.062 135.526 198.062C133.609 198.062 132.076 197.579 130.926 196.613C129.776 195.647 129.201 194.366 129.201 192.772C129.201 191.944 129.408 191.185 129.822 190.495C130.236 189.805 130.795 189.299 131.501 188.977C131.179 188.977 130.903 188.854 130.673 188.609C130.458 188.348 130.351 188.049 130.351 187.712C130.351 187.16 130.581 186.684 131.041 186.286C131.501 185.887 132.053 185.688 132.697 185.688C133.862 185.688 134.797 186.017 135.503 186.677C136.208 187.336 136.561 188.218 136.561 189.322H133.571C132.804 189.322 132.152 189.567 131.616 190.058C131.079 190.548 130.811 191.146 130.811 191.852C130.811 193.998 132.306 195.072 135.296 195.072C137.105 195.072 138.516 194.589 139.528 193.623C140.54 192.657 141.046 191.3 141.046 189.552C141.046 187.727 140.501 186.255 139.413 185.136C138.324 184.016 136.875 183.457 135.066 183.457C133.226 183.457 131.769 183.84 130.696 184.607L130.121 183.687C130.795 183.211 131.554 182.843 132.398 182.583C133.256 182.322 134.146 182.192 135.066 182.192C137.335 182.192 139.144 182.905 140.494 184.331C141.858 185.741 142.541 187.635 142.541 190.012ZM135.181 188.287C135.181 187.934 135.027 187.62 134.721 187.344C134.414 187.052 134.031 186.868 133.571 186.792C133.724 186.945 133.801 187.175 133.801 187.482C133.801 187.865 133.724 188.133 133.571 188.287H135.181ZM158.448 193.347C158.448 194.65 158.041 195.762 157.229 196.682C156.416 197.602 155.442 198.062 154.308 198.062C153.572 198.062 152.92 197.893 152.353 197.556C151.785 197.218 151.402 196.774 151.203 196.222C150.957 196.774 150.551 197.218 149.984 197.556C149.416 197.893 148.788 198.062 148.098 198.062C146.84 198.062 145.836 197.51 145.085 196.406C144.333 195.302 143.958 193.822 143.958 191.967C143.958 190.081 144.425 188.578 145.361 187.459C146.296 186.324 147.553 185.757 149.133 185.757C150.022 185.757 150.789 185.987 151.433 186.447L150.743 187.482C150.298 187.175 149.761 187.022 149.133 187.022C147.983 187.022 147.063 187.436 146.373 188.264C145.683 189.092 145.338 190.211 145.338 191.622C145.338 192.572 145.606 193.385 146.143 194.06C146.679 194.734 147.331 195.072 148.098 195.072C148.772 195.072 149.34 194.918 149.8 194.612C150.275 194.29 150.513 193.906 150.513 193.462V193.232H152.008V193.462C152.008 193.906 152.215 194.29 152.629 194.612C153.058 194.918 153.579 195.072 154.193 195.072C154.898 195.072 155.496 194.819 155.987 194.313C156.477 193.807 156.723 193.178 156.723 192.427C156.723 191.553 156.447 190.817 155.895 190.219C155.343 189.621 154.66 189.322 153.848 189.322H151.433V188.172C151.433 187.497 151.732 186.93 152.33 186.47C152.943 185.994 153.679 185.757 154.538 185.757C155.335 185.757 156.01 185.987 156.562 186.447C157.129 186.891 157.413 187.428 157.413 188.057C157.413 188.593 157.221 189.015 156.838 189.322C157.911 190.226 158.448 191.568 158.448 193.347ZM155.918 188.057C155.918 187.781 155.795 187.535 155.55 187.321C155.304 187.106 155.005 186.999 154.653 186.999C154.223 186.999 153.863 187.106 153.572 187.321C153.28 187.535 153.104 187.819 153.043 188.172H153.848C154.492 188.172 155.143 188.325 155.803 188.632C155.879 188.524 155.918 188.333 155.918 188.057ZM157.287 183.457C157.287 184.039 157.057 184.53 156.597 184.929C156.137 185.327 155.562 185.527 154.872 185.527V184.607C155.178 184.607 155.431 184.545 155.631 184.423C155.815 184.285 155.907 184.116 155.907 183.917C155.907 183.533 155.554 183.227 154.849 182.997C154.143 182.767 153.193 182.652 151.997 182.652C150.801 182.652 149.85 182.767 149.145 182.997C148.439 183.227 148.087 183.533 148.087 183.917C148.087 184.116 148.156 184.285 148.294 184.423C148.416 184.545 148.577 184.607 148.777 184.607V185.527C148.194 185.527 147.703 185.327 147.305 184.929C146.906 184.53 146.707 184.039 146.707 183.457C146.707 182.552 147.205 181.808 148.202 181.226C149.198 180.643 150.463 180.352 151.997 180.352C153.607 180.352 154.895 180.635 155.861 181.203C156.811 181.755 157.287 182.506 157.287 183.457Z" fill="white"/>
<defs>
<filter id="filter0_d_507_350" x="45.1934" y="0.792942" width="150.386" height="195.857" filterUnits="userSpaceOnUse" color-interpolation-filters="sRGB">
<feFlood flood-opacity="0" result="BackgroundImageFix"/>
<feColorMatrix in="SourceAlpha" type="matrix" values="0 0 0 0 0 0 0 0 0 0 0 0 0 0 0 0 0 0 127 0" result="hardAlpha"/>
<feOffset dy="19.5303"/>
<feGaussianBlur stdDeviation="19.5303"/>
<feComposite in2="hardAlpha" operator="out"/>
<feColorMatrix type="matrix" values="0 0 0 0 0.210031 0 0 0 0 0.0633751 0 0 0 0 0.65 0 0 0 0.4 0"/>
<feBlend mode="normal" in2="BackgroundImageFix" result="effect1_dropShadow_507_350"/>
<feBlend mode="normal" in="SourceGraphic" in2="effect1_dropShadow_507_350" result="shape"/>
</filter>
<filter id="filter1_d_507_350" x="130.271" y="59.766" width="103.329" height="120.61" filterUnits="userSpaceOnUse" color-interpolation-filters="sRGB">
<feFlood flood-opacity="0" result="BackgroundImageFix"/>
<feColorMatrix in="SourceAlpha" type="matrix" values="0 0 0 0 0 0 0 0 0 0 0 0 0 0 0 0 0 0 127 0" result="hardAlpha"/>
<feOffset dy="12.4269"/>
<feGaussianBlur stdDeviation="12.4269"/>
<feComposite in2="hardAlpha" operator="out"/>
<feColorMatrix type="matrix" values="0 0 0 0 0.210031 0 0 0 0 0.0633751 0 0 0 0 0.65 0 0 0 0.4 0"/>
<feBlend mode="normal" in2="BackgroundImageFix" result="effect1_dropShadow_507_350"/>
<feBlend mode="normal" in="SourceGraphic" in2="effect1_dropShadow_507_350" result="shape"/>
</filter>
<filter id="filter2_d_507_350" x="0.611309" y="59.766" width="103.329" height="120.61" filterUnits="userSpaceOnUse" color-interpolation-filters="sRGB">
<feFlood flood-opacity="0" result="BackgroundImageFix"/>
<feColorMatrix in="SourceAlpha" type="matrix" values="0 0 0 0 0 0 0 0 0 0 0 0 0 0 0 0 0 0 127 0" result="hardAlpha"/>
<feOffset dy="12.4269"/>
<feGaussianBlur stdDeviation="12.4269"/>
<feComposite in2="hardAlpha" operator="out"/>
<feColorMatrix type="matrix" values="0 0 0 0 0.210031 0 0 0 0 0.0633751 0 0 0 0 0.65 0 0 0 0.4 0"/>
<feBlend mode="normal" in2="BackgroundImageFix" result="effect1_dropShadow_507_350"/>
<feBlend mode="normal" in="SourceGraphic" in2="effect1_dropShadow_507_350" result="shape"/>
</filter>
</defs>
</svg>
